<svg width="119" height="55" fill="none" xmlns="http://www.w3.org/2000/svg"><path d="M23.257 3.403c-1.033-1.069-2.26-1.898-3.725-2.509C18.089.305 16.452 0 14.687 0c-2.175 0-4.178.37-5.965 1.09-1.788.72-3.338 1.746-4.63 3.077a14.118 14.118 0 00-3.015 4.822C.367 10.864 0 12.959 0 15.271c0 1.44.15 2.727.452 3.818.302 1.112.646 2.05 1.034 2.814.388.785.775 1.396 1.184 1.876.388.458.69.786.883.96.345.284.69.306 1.034.11.323-.197.624-.503.883-.895.258-.393.452-.807.603-1.266.15-.458.237-.785.237-1.003 0-.24-.065-.436-.173-.59-.107-.152-.301-.174-.581-.087a3.297 3.297 0 01-.323-.392c-.194-.218-.388-.567-.625-1.047a10.13 10.13 0 01-.603-1.833c-.172-.742-.28-1.68-.28-2.77 0-1.506.216-2.946.625-4.32.41-1.353 1.055-2.553 1.938-3.578.883-1.026 2.024-1.855 3.424-2.466 1.4-.61 3.08-.916 5.04-.916 1.42 0 2.648.262 3.66.807 1.012.524 1.83 1.2 2.477 2.03a8.183 8.183 0 011.4 2.726 9.984 9.984 0 01.43 2.902c0 1.374-.172 2.64-.517 3.774-.344 1.135-.797 2.16-1.357 3.055a12.03 12.03 0 01-1.895 2.356 13.756 13.756 0 01-2.175 1.701c-.753.459-1.464.808-2.174 1.07-.711.261-1.336.414-1.896.48V8.442c0-.61-.258-1.134-.753-1.549-.496-.436-1.163-.633-1.96-.633a1.75 1.75 0 00-.904.24c-.259.153-.388.371-.388.611 0 .175.043.371.108.59.064.217.107.545.107 1.003v25.853c0 .196.065.37.237.545.15.175.345.327.582.436.237.131.495.24.775.306.28.087.581.13.861.13.366 0 .69-.087.948-.261.28-.175.409-.458.409-.873v-6.523c1.787-.327 3.532-.982 5.19-1.898a17.293 17.293 0 004.393-3.534c1.27-1.418 2.283-3.033 3.058-4.865.754-1.833 1.141-3.818 1.141-5.978 0-1.745-.28-3.382-.84-4.843-.603-1.462-1.4-2.728-2.412-3.797zm94.903 12.981c-.473-.436-1.098-.632-1.916-.632a1.75 1.75 0 00-.905.24c-.258.152-.387.349-.387.589 0 .174.021.37.086.589.064.218.086.545.086 1.003v11.061c0 .459-.043.917-.129 1.331-.086.437-.216.807-.409 1.113a2.123 2.123 0 01-.754.763c-.302.175-.689.284-1.163.284-.474 0-.861-.087-1.163-.262a1.899 1.899 0 01-.711-.72 3.225 3.225 0 01-.366-1.112 14.145 14.145 0 01-.129-1.418V17.912c0-.59-.237-1.113-.71-1.528-.474-.436-1.12-.632-1.939-.632-.344 0-.646.087-.904.24-.237.152-.366.349-.366.589 0 .174.021.37.086.589.065.218.086.545.086 1.003v11.061c0 .459-.043.917-.129 1.331-.086.437-.215.807-.409 1.113a2.123 2.123 0 01-.754.763c-.301.175-.689.284-1.163.284-.517 0-.947-.109-1.27-.305a1.962 1.962 0 01-.732-.786 3.045 3.045 0 01-.324-1.112 8.698 8.698 0 01-.086-1.288V17.912c0-.59-.237-1.113-.71-1.528-.474-.436-1.099-.632-1.917-.632a1.75 1.75 0 00-.904.24c-.259.152-.388.349-.388.589 0 .174.043.37.108.589.064.218.107.545.107 1.003v8.225c0 .022-.021.066-.021.087-.086.48-.215.939-.388 1.375a3.968 3.968 0 01-.689 1.134c-.28.328-.624.59-1.034.764-.409.196-.86.284-1.4.284-.172 0-.344 0-.495-.022-.15 0-.323-.044-.495-.11.237-.828.41-1.7.517-2.617a22.83 22.83 0 00.172-2.727c0-1.2-.107-2.291-.323-3.316-.215-1.026-.517-1.898-.904-2.64-.388-.742-.819-1.31-1.335-1.746-.517-.414-1.056-.632-1.615-.632-.646 0-1.228.152-1.723.48-.495.305-.905.741-1.228 1.265a5.942 5.942 0 00-.732 1.854 9.216 9.216 0 00-.258 2.204c0 1.789.301 3.447.904 4.996.603 1.527 1.465 2.814 2.606 3.796-.323.567-.71 1.025-1.163 1.375-.452.349-1.034.523-1.723.523-.474 0-.926-.13-1.356-.393-.431-.261-.797-.654-1.12-1.178-.323-.523-.582-1.178-.754-1.941a12.5 12.5 0 01-.28-2.728c0-1.221.086-2.268.237-3.141.15-.873.344-1.614.581-2.204.237-.61.474-1.112.733-1.505.258-.393.495-.764.689-1.069.323-.218.495-.502.56-.894.064-.393.021-.764-.087-1.157-.129-.37-.301-.698-.581-.982-.258-.283-.56-.414-.861-.414-.28 0-.69.262-1.228.807-.538.524-1.098 1.31-1.658 2.313-.56 1.003-1.055 2.225-1.464 3.665-.431 1.44-.625 3.076-.625 4.887 0 .96.086 1.876.258 2.749-.15.458-.323.916-.516 1.33a5.162 5.162 0 01-.926 1.332c-.366.349-.776.523-1.27.523-.324 0-.56-.087-.733-.284a1.864 1.864 0 01-.366-.676 3.198 3.198 0 01-.15-.763c-.022-.24-.022-.437-.022-.546V20.224c0-.567-.065-1.134-.173-1.745-.129-.59-.323-1.135-.624-1.615a3.446 3.446 0 00-1.25-1.178c-.516-.305-1.184-.458-2.002-.458-.603 0-1.163.131-1.68.371-.516.24-.99.589-1.464 1.047-.452.436-.883.96-1.27 1.55a15.026 15.026 0 00-1.077 1.94v-2.224c0-.59-.237-1.113-.71-1.528-.475-.436-1.1-.632-1.917-.632a1.75 1.75 0 00-.905.24c-.258.152-.387.349-.387.589 0 .174.043.37.107.589.065.218.108.545.108 1.003v8.662a8.53 8.53 0 00-.194.567c-.495 1.701-1.12 3.185-1.852 4.472a22.79 22.79 0 01-2.455 3.404V17.912c0-.59-.237-1.113-.71-1.528-.474-.436-1.099-.632-1.917-.632a1.75 1.75 0 00-.904.24c-.237.152-.367.349-.367.589 0 .174.022.37.087.589.064.218.086.545.086 1.003v7.964a18.622 18.622 0 01-.603 2.508c-.259.808-.56 1.506-.905 2.117-.344.61-.732 1.112-1.141 1.483-.43.371-.883.546-1.378.546-.711 0-1.27-.35-1.659-1.048-.387-.698-.58-1.723-.58-3.076 0-1.025.02-1.963.085-2.792.065-.83.151-1.637.28-2.4.13-.764.259-1.527.43-2.29.173-.764.367-1.594.604-2.51.043-.196.15-.436.301-.742.151-.305.237-.61.28-.894a.963.963 0 00-.194-.764c-.172-.218-.56-.327-1.162-.327-.646 0-1.142.066-1.443.175-.302.109-.539.261-.69.436-.15.174-.236.37-.28.589a5.423 5.423 0 01-.172.633 54.82 54.82 0 00-.883 3.6 50.952 50.952 0 00-.603 3.577c-.172 1.331-.28 2.64-.28 3.927v.24a9.926 9.926 0 01-.645 1.702 5.168 5.168 0 01-.926 1.33c-.367.35-.776.525-1.271.525a1.44 1.44 0 01-.754-.197 1.494 1.494 0 01-.516-.523 2.629 2.629 0 01-.28-.72 3.432 3.432 0 01-.087-.808v-8.16c0-.588-.236-1.112-.71-1.526-.474-.437-1.12-.633-1.938-.633a1.75 1.75 0 00-.905.24c-.237.153-.366.35-.366.61 0 .088 0 .175.022.263a7.147 7.147 0 01.129.72c.021.152.043.37.043.61v7.636c-.28.698-.625 1.288-1.077 1.79-.452.501-.99.763-1.658.763-.861 0-1.529-.35-2.024-1.047-.495-.698-.732-1.702-.732-3.011 0-1.789.236-3.338.732-4.625.495-1.287 1.12-2.356 1.895-3.207.775-.851 1.636-1.484 2.584-1.876a7.003 7.003 0 012.821-.611c.258 0 .495.021.732.043.237.022.474.044.69.044.236 0 .408-.087.495-.262.086-.174.129-.458.129-.872 0-.655-.216-1.157-.625-1.528-.409-.37-.947-.545-1.615-.545-1.486 0-2.928.305-4.328.916a11.042 11.042 0 00-3.704 2.64c-1.077 1.156-1.938 2.553-2.606 4.189-.646 1.636-.969 3.49-.969 5.563 0 1.047.13 2.03.366 2.924a6.975 6.975 0 001.098 2.356 5.096 5.096 0 001.83 1.57c.733.393 1.551.59 2.52.59.926 0 1.723-.197 2.412-.59.69-.392 1.292-.872 1.766-1.44a4.114 4.114 0 001.508 1.484c.645.371 1.378.546 2.24.546 1.054 0 1.959-.24 2.755-.742.754-.48 1.4-1.07 1.939-1.79.129.22.236.437.387.634.453.61.99 1.09 1.637 1.44a4.772 4.772 0 002.175.501c1.055 0 1.96-.327 2.735-.96.775-.632 1.464-1.461 2.046-2.443v6.283c-.819.72-1.573 1.44-2.305 2.138a15.694 15.694 0 00-1.938 2.247c-.56.808-.99 1.68-1.313 2.662-.323.96-.496 2.072-.496 3.338 0 .785.108 1.527.345 2.225.237.698.56 1.287.969 1.81.43.525.926.917 1.486 1.223.581.305 1.206.436 1.873.436a4.89 4.89 0 001.83-.37c.604-.24 1.142-.634 1.616-1.2.474-.546.861-1.288 1.163-2.182.301-.895.43-1.986.43-3.295v-8.552a40.144 40.144 0 002.003-1.898 19.367 19.367 0 001.938-2.334c.194-.284.41-.59.603-.895.043.24.086.458.194.633.15.283.345.502.581.654.237.153.496.262.754.306.28.065.539.087.776.087.344 0 .624-.065.796-.196a1.33 1.33 0 00.41-.502c.085-.197.129-.437.15-.676 0-.24.022-.502.022-.742v-7.222c.086-.981.323-1.963.71-2.923.366-.982.797-1.854 1.292-2.618.496-.764.991-1.396 1.508-1.876s.947-.72 1.292-.72a.71.71 0 01.56.24c.129.152.237.349.301.61.065.262.108.546.13.895.021.327.021.698.021 1.091v10.036c0 .632.086 1.221.28 1.789a4.15 4.15 0 00.818 1.483c.366.437.797.742 1.292 1.004a3.93 3.93 0 001.723.37c1.055 0 1.96-.24 2.735-.741a8.309 8.309 0 002.024-1.876c.065-.088.13-.197.194-.284.043.066.086.13.13.175.58.85 1.334 1.505 2.217 2.007.883.502 1.96.742 3.188.742 1.4 0 2.584-.328 3.531-.982a7.618 7.618 0 002.326-2.575c.366.131.732.218 1.141.262.388.044.797.066 1.25.066.817 0 1.571-.131 2.239-.393a5.22 5.22 0 001.141-.611c.022.11.065.218.086.35.151.5.345.98.603 1.439.259.458.625.873 1.055 1.243.453.371.991.655 1.637.851.646.219 1.421.306 2.326.306.452 0 .926-.066 1.378-.197.452-.13.883-.305 1.292-.523.388-.218.754-.458 1.055-.742.302-.284.539-.589.711-.916.172.327.409.633.689.916.28.284.625.524.991.742a5.51 5.51 0 001.27.523c.452.131.948.197 1.486.197 1.249 0 2.283-.218 3.058-.633.775-.414 1.378-.96 1.809-1.614a5.835 5.835 0 00.861-2.182c.151-.807.237-1.57.237-2.356V17.91c.194-.588-.043-1.09-.517-1.527zM54.396 47.975v1.004c0 .414-.043.872-.107 1.287-.065.436-.194.807-.388 1.112-.194.328-.474.48-.861.48-.388 0-.71-.261-.948-.785-.237-.524-.344-1.178-.344-1.942 0-1.483.236-2.727.732-3.752a10.37 10.37 0 011.916-2.727v5.323zm36.2-20.333c-.56-.742-1.012-1.615-1.357-2.618a9.64 9.64 0 01-.517-3.164c0-1.57.28-2.334.84-2.334.259 0 .453.153.603.436.151.306.28.698.366 1.222.087.524.151 1.134.173 1.854.021.72.043 1.484.043 2.335 0 .72-.065 1.483-.151 2.269z" fill="#161828"/></svg>