<svg width="240" height="270" fill="none" xmlns="http://www.w3.org/2000/svg"><g filter="url(#filter0_d)"><rect x="35" y="15" width="170" height="200" rx="10" fill="#fff"/></g><path d="M35 25c0-5.523 4.477-10 10-10h150c5.523 0 10 4.477 10 10v22.129H35V25z" fill="#EFF5FF"/><ellipse cx="57.885" cy="31.064" rx="4.904" ry="4.819" fill="#9166F0"/><ellipse cx="75.865" cy="31.064" rx="4.904" ry="4.819" fill="#FF6D9E"/><ellipse cx="93.846" cy="31.064" rx="4.904" ry="4.819" fill="#78BEFF"/><rect x="84.538" y="171.323" width="70.923" height="19.08" rx="4.5" fill="#A27DF2" stroke="#7F4FE8"/><path d="M77.934 67.466l2.16 4.284c.058.143.203.229.35.257l4.813.686c.409.057.555.543.263.8l-3.472 3.313a.466.466 0 00-.146.428l.846 4.685a.47.47 0 01-.7.485l-4.318-2.227c-.146-.086-.321-.086-.438 0l-4.318 2.227c-.35.172-.758-.114-.7-.485l.817-4.684a.49.49 0 00-.146-.429l-3.472-3.313a.466.466 0 01.263-.8l4.814-.686c.145-.028.291-.114.35-.257l2.159-4.284c.204-.343.7-.343.875 0zm21.25 0l2.159 4.284c.059.143.204.229.35.257l4.814.686c.409.057.555.543.263.8l-3.472 3.313a.465.465 0 00-.146.428l.846 4.685a.47.47 0 01-.7.485l-4.318-2.227c-.146-.086-.321-.086-.438 0l-4.318 2.227c-.35.172-.758-.114-.7-.485l.817-4.684a.49.49 0 00-.146-.429l-3.472-3.313a.466.466 0 01.263-.8l4.814-.686c.145-.028.291-.114.35-.257l2.159-4.284c.204-.343.7-.343.875 0zm21.25 0l2.159 4.284c.059.143.204.229.35.257l4.814.686c.409.057.555.543.263.8l-3.472 3.313a.465.465 0 00-.146.428l.846 4.685a.47.47 0 01-.7.485l-4.318-2.227c-.146-.086-.321-.086-.438 0l-4.318 2.227c-.35.172-.758-.114-.7-.485l.817-4.684a.49.49 0 00-.146-.429l-3.472-3.313a.466.466 0 01.263-.8l4.814-.686c.146-.028.291-.114.35-.257l2.159-4.284c.204-.343.7-.343.875 0zm21.25 0l2.159 4.284c.059.143.204.229.35.257l4.814.686c.409.057.555.543.263.8l-3.472 3.313a.465.465 0 00-.146.428l.846 4.685a.47.47 0 01-.7.485l-4.318-2.227c-.146-.086-.321-.086-.438 0l-4.318 2.227c-.35.172-.758-.114-.7-.485l.817-4.684a.49.49 0 00-.146-.429l-3.472-3.313a.466.466 0 01.263-.8l4.814-.686c.146-.028.291-.114.35-.257l2.159-4.284c.204-.343.7-.343.875 0zm21.25 0l2.159 4.284c.059.143.204.229.35.257l4.814.686c.409.057.555.543.263.8l-3.472 3.313a.465.465 0 00-.146.428l.846 4.685a.47.47 0 01-.7.485l-4.318-2.227c-.146-.086-.321-.086-.438 0l-4.318 2.227c-.35.172-.758-.114-.7-.485l.817-4.684a.49.49 0 00-.146-.429l-3.472-3.313a.466.466 0 01.263-.8l4.814-.686c.146-.028.291-.114.35-.257l2.159-4.284c.204-.343.7-.343.875 0z" fill="#FFD48B"/><ellipse cx="120" cy="112.992" rx="18.798" ry="18.474" fill="#DCE3EE"/><rect x="96.298" y="154.759" width="47.404" height="4.819" rx="2" fill="#DCE3EE"/><rect x="106.106" y="143.514" width="27.788" height="4.819" rx="2" fill="#DCE3EE"/><g clip-path="url(#clip0)" fill="#fff"><path d="M120.409 112.614c-4.954 0-8.985 3.961-8.985 8.829 0 .212.175.384.391.384h17.187a.388.388 0 00.391-.384c0-4.868-4.031-8.829-8.984-8.829zm0-.815c2.373 0 4.296-1.891 4.296-4.223s-1.923-4.223-4.296-4.223-4.297 1.891-4.297 4.223 1.924 4.223 4.297 4.223z"/></g><defs><clipPath id="clip0"><path fill="#fff" transform="translate(111.01 103.353)" d="M0 0h18.798v18.474H0z"/></clipPath><filter id="filter0_d" x="0" y="0" width="240" height="270" filterUnits="userSpaceOnUse" color-interpolation-filters="sRGB"><feFlood flood-opacity="0" result="BackgroundImageFix"/><feColorMatrix in="SourceAlpha" values="0 0 0 0 0 0 0 0 0 0 0 0 0 0 0 0 0 0 127 0" result="hardAlpha"/><feOffset dy="20"/><feGaussianBlur stdDeviation="17.5"/><feColorMatrix values="0 0 0 0 0.743472 0 0 0 0 0.800425 0 0 0 0 0.841667 0 0 0 0.25 0"/><feBlend in2="BackgroundImageFix" result="effect1_dropShadow"/><feBlend in="SourceGraphic" in2="effect1_dropShadow" result="shape"/></filter></defs></svg>